<svg width="26" height="26" viewBox="0 0 26 26" fill="none" xmlns="http://www.w3.org/2000/svg">
<path d="M2.43164 3.25H3.9328C4.48495 3.25 4.96813 3.62121 5.1104 4.15472L5.52553 5.71143M8.11914 15.4375C6.32422 15.4375 4.86914 16.8926 4.86914 18.6875H21.9316M8.11914 15.4375H20.2723C21.4868 12.9451 22.5467 10.3635 23.4393 7.70521C18.2809 6.38783 12.8755 5.6875 7.30664 5.6875C6.71103 5.6875 6.11729 5.69551 5.52553 5.71143M8.11914 15.4375L5.52553 5.71143M6.49414 21.9375C6.49414 22.3862 6.13037 22.75 5.68164 22.75C5.23291 22.75 4.86914 22.3862 4.86914 21.9375C4.86914 21.4888 5.23291 21.125 5.68164 21.125C6.13037 21.125 6.49414 21.4888 6.49414 21.9375ZM20.3066 21.9375C20.3066 22.3862 19.9429 22.75 19.4941 22.75C19.0454 22.75 18.6816 22.3862 18.6816 21.9375C18.6816 21.4888 19.0454 21.125 19.4941 21.125C19.9429 21.125 20.3066 21.4888 20.3066 21.9375Z" stroke="#1A1A1A" stroke-width="2" stroke-linecap="round" stroke-linejoin="round"/>
</svg>
