<svg width="30" height="30" viewBox="0 0 30 30" fill="none" xmlns="http://www.w3.org/2000/svg">
<path fill-rule="evenodd" clip-rule="evenodd" d="M7.03125 1.875C5.73683 1.875 4.6875 2.92433 4.6875 4.21875V25.7812C4.6875 27.0757 5.73683 28.125 7.03125 28.125H22.9688C24.2632 28.125 25.3125 27.0757 25.3125 25.7812V15.9375C25.3125 13.3487 23.2138 11.25 20.625 11.25H18.2812C16.9868 11.25 15.9375 10.2007 15.9375 8.90625V6.5625C15.9375 3.97367 13.8388 1.875 11.25 1.875H7.03125ZM9.375 18.75C9.375 18.2322 9.79473 17.8125 10.3125 17.8125H19.6875C20.2053 17.8125 20.625 18.2322 20.625 18.75C20.625 19.2678 20.2053 19.6875 19.6875 19.6875H10.3125C9.79473 19.6875 9.375 19.2678 9.375 18.75ZM10.3125 21.5625C9.79473 21.5625 9.375 21.9822 9.375 22.5C9.375 23.0178 9.79473 23.4375 10.3125 23.4375H15C15.5178 23.4375 15.9375 23.0178 15.9375 22.5C15.9375 21.9822 15.5178 21.5625 15 21.5625H10.3125Z" fill="#B71E2B"/>
<path fill-rule="evenodd" clip-rule="evenodd" d="M7.03125 1.875C5.73683 1.875 4.6875 2.92433 4.6875 4.21875V25.7812C4.6875 27.0757 5.73683 28.125 7.03125 28.125H22.9688C24.2632 28.125 25.3125 27.0757 25.3125 25.7812V15.9375C25.3125 13.3487 23.2138 11.25 20.625 11.25H18.2812C16.9868 11.25 15.9375 10.2007 15.9375 8.90625V6.5625C15.9375 3.97367 13.8388 1.875 11.25 1.875H7.03125ZM9.375 18.75C9.375 18.2322 9.79473 17.8125 10.3125 17.8125H19.6875C20.2053 17.8125 20.625 18.2322 20.625 18.75C20.625 19.2678 20.2053 19.6875 19.6875 19.6875H10.3125C9.79473 19.6875 9.375 19.2678 9.375 18.75ZM10.3125 21.5625C9.79473 21.5625 9.375 21.9822 9.375 22.5C9.375 23.0178 9.79473 23.4375 10.3125 23.4375H15C15.5178 23.4375 15.9375 23.0178 15.9375 22.5C15.9375 21.9822 15.5178 21.5625 15 21.5625H10.3125Z" fill="#820D17"/>
<path d="M16.214 2.26988C17.21 3.4206 17.8125 4.92118 17.8125 6.5625V8.90625C17.8125 9.16513 18.0224 9.375 18.2812 9.375H20.625C22.2663 9.375 23.7669 9.97755 24.9176 10.9735C23.8078 6.72485 20.4627 3.37972 16.214 2.26988Z" fill="#B71E2B"/>
<path d="M16.214 2.26988C17.21 3.4206 17.8125 4.92118 17.8125 6.5625V8.90625C17.8125 9.16513 18.0224 9.375 18.2812 9.375H20.625C22.2663 9.375 23.7669 9.97755 24.9176 10.9735C23.8078 6.72485 20.4627 3.37972 16.214 2.26988Z" fill="#820D17"/>
</svg>
